<svg width="1024" height="753" viewBox="0 0 1024 753" fill="none" xmlns="http://www.w3.org/2000/svg">
<g opacity="0.2" filter="url(#filter0_f_175_1885)">
<ellipse cx="512.5" cy="34" rx="670.5" ry="350" fill="#338AF3"/>
</g>
<path d="M33.0349 270C34.5302 270 35.6622 270.63 36.4308 271.891C37.2134 273.138 37.6047 274.953 37.6047 277.336C37.6047 279.719 37.2134 281.541 36.4308 282.802C35.6622 284.063 34.5302 284.693 33.0349 284.693C31.5536 284.693 30.4216 284.063 29.639 282.802C28.8564 281.541 28.4651 279.719 28.4651 277.336C28.4651 274.967 28.8564 273.152 29.639 271.891C30.4216 270.63 31.5536 270 33.0349 270ZM29.9534 277.336C29.9534 279.026 30.1072 280.35 30.4146 281.306L35.0683 272.099C34.5791 271.448 33.9013 271.122 33.0349 271.122C32.0706 271.122 31.316 271.635 30.771 272.66C30.2259 273.672 29.9534 275.23 29.9534 277.336ZM33.0349 283.55C34.0131 283.55 34.7748 283.044 35.3198 282.033C35.8648 281.008 36.1373 279.442 36.1373 277.336C36.1373 275.549 35.9627 274.163 35.6133 273.18L30.9596 282.469C31.4627 283.19 32.1545 283.55 33.0349 283.55Z" fill="url(#paint0_linear_175_1885)" fill-opacity="0.6"/>
<path d="M34.2926 307.135H37.3741V308.236H29.3874V307.135H32.9511V295.455L29.5551 297.471L28.9682 296.536L33.1607 293.959H34.2926V307.135Z" fill="url(#paint1_linear_175_1885)" fill-opacity="0.6"/>
<path d="M33.0349 317.502C34.5302 317.502 35.6622 318.133 36.4308 319.393C37.2134 320.64 37.6047 322.455 37.6047 324.838C37.6047 327.221 37.2134 329.043 36.4308 330.304C35.6622 331.565 34.5302 332.195 33.0349 332.195C31.5536 332.195 30.4216 331.565 29.639 330.304C28.8564 329.043 28.4651 327.221 28.4651 324.838C28.4651 322.469 28.8564 320.654 29.639 319.393C30.4216 318.133 31.5536 317.502 33.0349 317.502ZM29.9534 324.838C29.9534 326.529 30.1072 327.852 30.4146 328.808L35.0683 319.601C34.5791 318.95 33.9013 318.624 33.0349 318.624C32.0706 318.624 31.316 319.137 30.771 320.162C30.2259 321.174 29.9534 322.732 29.9534 324.838ZM33.0349 331.052C34.0131 331.052 34.7748 330.546 35.3198 329.535C35.8648 328.51 36.1373 326.944 36.1373 324.838C36.1373 323.051 35.9627 321.665 35.6133 320.682L30.9596 329.971C31.4627 330.692 32.1545 331.052 33.0349 331.052Z" fill="url(#paint2_linear_175_1885)" fill-opacity="0.6"/>
<path d="M34.2926 354.637H37.3741V355.738H29.3874V354.637H32.9511V342.957L29.5551 344.973L28.9682 344.038L33.1607 341.461H34.2926V354.637Z" fill="url(#paint3_linear_175_1885)" fill-opacity="0.6"/>
<path d="M34.2926 378.388H37.3741V379.489H29.3874V378.388H32.9511V366.708L29.5551 368.724L28.9682 367.789L33.1607 365.212H34.2926V378.388Z" fill="url(#paint4_linear_175_1885)" fill-opacity="0.6"/>
<path d="M33.0349 388.755C34.5302 388.755 35.6622 389.386 36.4308 390.646C37.2134 391.893 37.6047 393.708 37.6047 396.091C37.6047 398.474 37.2134 400.296 36.4308 401.557C35.6622 402.818 34.5302 403.448 33.0349 403.448C31.5536 403.448 30.4216 402.818 29.639 401.557C28.8564 400.296 28.4651 398.474 28.4651 396.091C28.4651 393.722 28.8564 391.907 29.639 390.646C30.4216 389.386 31.5536 388.755 33.0349 388.755ZM29.9534 396.091C29.9534 397.782 30.1072 399.105 30.4146 400.061L35.0683 390.854C34.5791 390.203 33.9013 389.878 33.0349 389.878C32.0706 389.878 31.316 390.39 30.771 391.415C30.2259 392.427 29.9534 393.985 29.9534 396.091ZM33.0349 402.305C34.0131 402.305 34.7748 401.8 35.3198 400.788C35.8648 399.763 36.1373 398.197 36.1373 396.091C36.1373 394.304 35.9627 392.919 35.6133 391.935L30.9596 401.225C31.4627 401.945 32.1545 402.305 33.0349 402.305Z" fill="url(#paint5_linear_175_1885)" fill-opacity="0.6"/>
<path d="M34.2926 425.89H37.3741V426.992H29.3874V425.89H32.9511V414.21L29.5551 416.226L28.9682 415.291L33.1607 412.714H34.2926V425.89Z" fill="url(#paint6_linear_175_1885)" fill-opacity="0.6"/>
<path d="M33.0349 436.257C34.5302 436.257 35.6622 436.888 36.4308 438.149C37.2134 439.396 37.6047 441.211 37.6047 443.594C37.6047 445.977 37.2134 447.798 36.4308 449.059C35.6622 450.32 34.5302 450.95 33.0349 450.95C31.5536 450.95 30.4216 450.32 29.639 449.059C28.8564 447.798 28.4651 445.977 28.4651 443.594C28.4651 441.224 28.8564 439.409 29.639 438.149C30.4216 436.888 31.5536 436.257 33.0349 436.257ZM29.9534 443.594C29.9534 445.284 30.1072 446.607 30.4146 447.563L35.0683 438.356C34.5791 437.705 33.9013 437.38 33.0349 437.38C32.0706 437.38 31.316 437.892 30.771 438.918C30.2259 439.929 29.9534 441.488 29.9534 443.594ZM33.0349 449.807C34.0131 449.807 34.7748 449.302 35.3198 448.29C35.8648 447.265 36.1373 445.699 36.1373 443.594C36.1373 441.806 35.9627 440.421 35.6133 439.437L30.9596 448.727C31.4627 449.447 32.1545 449.807 33.0349 449.807Z" fill="url(#paint7_linear_175_1885)" fill-opacity="0.6"/>
<path d="M33.0349 460.008C34.5302 460.008 35.6622 460.639 36.4308 461.9C37.2134 463.147 37.6047 464.962 37.6047 467.345C37.6047 469.728 37.2134 471.549 36.4308 472.81C35.6622 474.071 34.5302 474.701 33.0349 474.701C31.5536 474.701 30.4216 474.071 29.639 472.81C28.8564 471.549 28.4651 469.728 28.4651 467.345C28.4651 464.975 28.8564 463.16 29.639 461.9C30.4216 460.639 31.5536 460.008 33.0349 460.008ZM29.9534 467.345C29.9534 469.035 30.1072 470.358 30.4146 471.314L35.0683 462.107C34.5791 461.456 33.9013 461.131 33.0349 461.131C32.0706 461.131 31.316 461.643 30.771 462.669C30.2259 463.68 29.9534 465.239 29.9534 467.345ZM33.0349 473.558C34.0131 473.558 34.7748 473.053 35.3198 472.041C35.8648 471.016 36.1373 469.451 36.1373 467.345C36.1373 465.557 35.9627 464.172 35.6133 463.188L30.9596 472.478C31.4627 473.198 32.1545 473.558 33.0349 473.558Z" fill="url(#paint8_linear_175_1885)" fill-opacity="0.6"/>
<path d="M34.2926 497.143H37.3741V498.245H29.3874V497.143H32.9511V485.464L29.5551 487.48L28.9682 486.544L33.1607 483.967H34.2926V497.143Z" fill="url(#paint9_linear_175_1885)" fill-opacity="0.6"/>
<path d="M33.0349 507.511C34.5302 507.511 35.6622 508.141 36.4308 509.402C37.2134 510.649 37.6047 512.464 37.6047 514.847C37.6047 517.23 37.2134 519.052 36.4308 520.312C35.6622 521.573 34.5302 522.204 33.0349 522.204C31.5536 522.204 30.4216 521.573 29.639 520.312C28.8564 519.052 28.4651 517.23 28.4651 514.847C28.4651 512.478 28.8564 510.663 29.639 509.402C30.4216 508.141 31.5536 507.511 33.0349 507.511ZM29.9534 514.847C29.9534 516.537 30.1072 517.86 30.4146 518.816L35.0683 509.61C34.5791 508.958 33.9013 508.633 33.0349 508.633C32.0706 508.633 31.316 509.145 30.771 510.171C30.2259 511.182 29.9534 512.741 29.9534 514.847ZM33.0349 521.061C34.0131 521.061 34.7748 520.555 35.3198 519.543C35.8648 518.518 36.1373 516.953 36.1373 514.847C36.1373 513.059 35.9627 511.674 35.6133 510.69L30.9596 519.98C31.4627 520.7 32.1545 521.061 33.0349 521.061Z" fill="url(#paint10_linear_175_1885)" fill-opacity="0.6"/>
<path d="M34.2926 544.645H37.3741V545.747H29.3874V544.645H32.9511V532.966L29.5551 534.982L28.9682 534.046L33.1607 531.469H34.2926V544.645Z" fill="url(#paint11_linear_175_1885)" fill-opacity="0.6"/>
<path d="M34.2926 568.396H37.3741V569.498H29.3874V568.396H32.9511V556.717L29.5551 558.733L28.9682 557.798L33.1607 555.221H34.2926V568.396Z" fill="url(#paint12_linear_175_1885)" fill-opacity="0.6"/>
<path d="M71.9651 317.502C73.4604 317.502 74.5924 318.133 75.361 319.393C76.1436 320.64 76.5349 322.455 76.5349 324.838C76.5349 327.221 76.1436 329.043 75.361 330.304C74.5924 331.565 73.4604 332.195 71.9651 332.195C70.4838 332.195 69.3518 331.565 68.5692 330.304C67.7866 329.043 67.3953 327.221 67.3953 324.838C67.3953 322.469 67.7866 320.654 68.5692 319.393C69.3518 318.133 70.4838 317.502 71.9651 317.502ZM68.8836 324.838C68.8836 326.529 69.0374 327.852 69.3448 328.808L73.9985 319.601C73.5093 318.95 72.8315 318.624 71.9651 318.624C71.0008 318.624 70.2462 319.137 69.7012 320.162C69.1561 321.174 68.8836 322.732 68.8836 324.838ZM71.9651 331.052C72.9433 331.052 73.705 330.546 74.25 329.535C74.795 328.51 75.0675 326.944 75.0675 324.838C75.0675 323.051 74.8928 321.665 74.5435 320.682L69.8898 329.971C70.3929 330.692 71.0847 331.052 71.9651 331.052Z" fill="url(#paint13_linear_175_1885)" fill-opacity="0.6"/>
<path d="M73.2228 354.637H76.3043V355.738H68.3176V354.637H71.8812V342.957L68.4853 344.973L67.8984 344.038L72.0909 341.461H73.2228V354.637Z" fill="url(#paint14_linear_175_1885)" fill-opacity="0.6"/>
<path d="M71.9651 365.004C73.4604 365.004 74.5924 365.635 75.361 366.895C76.1436 368.142 76.5349 369.957 76.5349 372.34C76.5349 374.723 76.1436 376.545 75.361 377.806C74.5924 379.067 73.4604 379.697 71.9651 379.697C70.4838 379.697 69.3518 379.067 68.5692 377.806C67.7866 376.545 67.3953 374.723 67.3953 372.34C67.3953 369.971 67.7866 368.156 68.5692 366.895C69.3518 365.635 70.4838 365.004 71.9651 365.004ZM68.8836 372.34C68.8836 374.031 69.0374 375.354 69.3448 376.31L73.9985 367.103C73.5093 366.452 72.8315 366.126 71.9651 366.126C71.0008 366.126 70.2462 366.639 69.7012 367.664C69.1561 368.676 68.8836 370.234 68.8836 372.34ZM71.9651 378.554C72.9433 378.554 73.705 378.049 74.25 377.037C74.795 376.012 75.0675 374.446 75.0675 372.34C75.0675 370.553 74.8928 369.168 74.5435 368.184L69.8898 377.474C70.3929 378.194 71.0847 378.554 71.9651 378.554Z" fill="url(#paint15_linear_175_1885)" fill-opacity="0.6"/>
<path d="M71.9651 388.755C73.4604 388.755 74.5924 389.386 75.361 390.646C76.1436 391.893 76.5349 393.708 76.5349 396.091C76.5349 398.474 76.1436 400.296 75.361 401.557C74.5924 402.818 73.4604 403.448 71.9651 403.448C70.4838 403.448 69.3518 402.818 68.5692 401.557C67.7866 400.296 67.3953 398.474 67.3953 396.091C67.3953 393.722 67.7866 391.907 68.5692 390.646C69.3518 389.386 70.4838 388.755 71.9651 388.755ZM68.8836 396.091C68.8836 397.782 69.0374 399.105 69.3448 400.061L73.9985 390.854C73.5093 390.203 72.8315 389.878 71.9651 389.878C71.0008 389.878 70.2462 390.39 69.7012 391.415C69.1561 392.427 68.8836 393.985 68.8836 396.091ZM71.9651 402.305C72.9433 402.305 73.705 401.8 74.25 400.788C74.795 399.763 75.0675 398.197 75.0675 396.091C75.0675 394.304 74.8928 392.919 74.5435 391.935L69.8898 401.225C70.3929 401.945 71.0847 402.305 71.9651 402.305Z" fill="url(#paint16_linear_175_1885)" fill-opacity="0.6"/>
<path d="M73.2228 425.89H76.3043V426.992H68.3176V425.89H71.8812V414.21L68.4853 416.226L67.8984 415.291L72.0909 412.714H73.2228V425.89Z" fill="url(#paint17_linear_175_1885)" fill-opacity="0.6"/>
<path d="M71.9651 436.257C73.4604 436.257 74.5924 436.888 75.361 438.149C76.1436 439.396 76.5349 441.211 76.5349 443.594C76.5349 445.977 76.1436 447.798 75.361 449.059C74.5924 450.32 73.4604 450.95 71.9651 450.95C70.4838 450.95 69.3518 450.32 68.5692 449.059C67.7866 447.798 67.3953 445.977 67.3953 443.594C67.3953 441.224 67.7866 439.409 68.5692 438.149C69.3518 436.888 70.4838 436.257 71.9651 436.257ZM68.8836 443.594C68.8836 445.284 69.0374 446.607 69.3448 447.563L73.9985 438.356C73.5093 437.705 72.8315 437.38 71.9651 437.38C71.0008 437.38 70.2462 437.892 69.7012 438.918C69.1561 439.929 68.8836 441.488 68.8836 443.594ZM71.9651 449.807C72.9433 449.807 73.705 449.302 74.25 448.29C74.795 447.265 75.0675 445.699 75.0675 443.594C75.0675 441.806 74.8928 440.421 74.5435 439.437L69.8898 448.727C70.3929 449.447 71.0847 449.807 71.9651 449.807Z" fill="url(#paint18_linear_175_1885)" fill-opacity="0.6"/>
<path d="M73.2228 473.392H76.3043V474.494H68.3176V473.392H71.8812V461.713L68.4853 463.728L67.8984 462.793L72.0909 460.216H73.2228V473.392Z" fill="url(#paint19_linear_175_1885)" fill-opacity="0.6"/>
<path d="M71.9651 483.76C73.4604 483.76 74.5924 484.39 75.361 485.651C76.1436 486.898 76.5349 488.713 76.5349 491.096C76.5349 493.479 76.1436 495.301 75.361 496.561C74.5924 497.822 73.4604 498.453 71.9651 498.453C70.4838 498.453 69.3518 497.822 68.5692 496.561C67.7866 495.301 67.3953 493.479 67.3953 491.096C67.3953 488.726 67.7866 486.911 68.5692 485.651C69.3518 484.39 70.4838 483.76 71.9651 483.76ZM68.8836 491.096C68.8836 492.786 69.0374 494.109 69.3448 495.065L73.9985 485.859C73.5093 485.207 72.8315 484.882 71.9651 484.882C71.0008 484.882 70.2462 485.394 69.7012 486.42C69.1561 487.431 68.8836 488.99 68.8836 491.096ZM71.9651 497.31C72.9433 497.31 73.705 496.804 74.25 495.792C74.795 494.767 75.0675 493.202 75.0675 491.096C75.0675 489.308 74.8928 487.923 74.5435 486.939L69.8898 496.229C70.3929 496.949 71.0847 497.31 71.9651 497.31Z" fill="url(#paint20_linear_175_1885)" fill-opacity="0.6"/>
<path d="M71.9651 507.511C73.4604 507.511 74.5924 508.141 75.361 509.402C76.1436 510.649 76.5349 512.464 76.5349 514.847C76.5349 517.23 76.1436 519.052 75.361 520.312C74.5924 521.573 73.4604 522.204 71.9651 522.204C70.4838 522.204 69.3518 521.573 68.5692 520.312C67.7866 519.052 67.3953 517.23 67.3953 514.847C67.3953 512.478 67.7866 510.663 68.5692 509.402C69.3518 508.141 70.4838 507.511 71.9651 507.511ZM68.8836 514.847C68.8836 516.537 69.0374 517.86 69.3448 518.816L73.9985 509.61C73.5093 508.958 72.8315 508.633 71.9651 508.633C71.0008 508.633 70.2462 509.145 69.7012 510.171C69.1561 511.182 68.8836 512.741 68.8836 514.847ZM71.9651 521.061C72.9433 521.061 73.705 520.555 74.25 519.543C74.795 518.518 75.0675 516.953 75.0675 514.847C75.0675 513.059 74.8928 511.674 74.5435 510.69L69.8898 519.98C70.3929 520.7 71.0847 521.061 71.9651 521.061Z" fill="url(#paint21_linear_175_1885)" fill-opacity="0.6"/>
<path d="M73.2228 544.645H76.3043V545.747H68.3176V544.645H71.8812V532.966L68.4853 534.982L67.8984 534.046L72.0909 531.469H73.2228V544.645Z" fill="url(#paint22_linear_175_1885)" fill-opacity="0.6"/>
<path d="M71.9651 555.013C73.4604 555.013 74.5924 555.643 75.361 556.904C76.1436 558.151 76.5349 559.966 76.5349 562.349C76.5349 564.732 76.1436 566.554 75.361 567.815C74.5924 569.075 73.4604 569.706 71.9651 569.706C70.4838 569.706 69.3518 569.075 68.5692 567.815C67.7866 566.554 67.3953 564.732 67.3953 562.349C67.3953 559.98 67.7866 558.165 68.5692 556.904C69.3518 555.643 70.4838 555.013 71.9651 555.013ZM68.8836 562.349C68.8836 564.039 69.0374 565.362 69.3448 566.318L73.9985 557.112C73.5093 556.461 72.8315 556.135 71.9651 556.135C71.0008 556.135 70.2462 556.648 69.7012 557.673C69.1561 558.684 68.8836 560.243 68.8836 562.349ZM71.9651 568.563C72.9433 568.563 73.705 568.057 74.25 567.046C74.795 566.02 75.0675 564.455 75.0675 562.349C75.0675 560.562 74.8928 559.176 74.5435 558.192L69.8898 567.482C70.3929 568.202 71.0847 568.563 71.9651 568.563Z" fill="url(#paint23_linear_175_1885)" fill-opacity="0.6"/>
<path d="M73.2228 592.148H76.3043V593.249H68.3176V592.148H71.8812V580.468L68.4853 582.484L67.8984 581.549L72.0909 578.972H73.2228V592.148Z" fill="url(#paint24_linear_175_1885)" fill-opacity="0.6"/>
<path d="M73.2228 615.899H76.3043V617H68.3176V615.899H71.8812V604.219L68.4853 606.235L67.8984 605.3L72.0909 602.723H73.2228V615.899Z" fill="url(#paint25_linear_175_1885)" fill-opacity="0.6"/>
<path d="M13.5698 341.253C15.0651 341.253 16.1971 341.884 16.9657 343.144C17.7483 344.391 18.1396 346.206 18.1396 348.589C18.1396 350.972 17.7483 352.794 16.9657 354.055C16.1971 355.316 15.0651 355.946 13.5698 355.946C12.0885 355.946 10.9565 355.316 10.1739 354.055C9.3913 352.794 9 350.972 9 348.589C9 346.22 9.3913 344.405 10.1739 343.144C10.9565 341.884 12.0885 341.253 13.5698 341.253ZM10.4883 348.589C10.4883 350.28 10.6421 351.603 10.9495 352.559L15.6032 343.352C15.114 342.701 14.4363 342.375 13.5698 342.375C12.6055 342.375 11.8509 342.888 11.3059 343.913C10.7608 344.925 10.4883 346.483 10.4883 348.589ZM13.5698 354.803C14.5481 354.803 15.3097 354.297 15.8547 353.286C16.3997 352.261 16.6722 350.695 16.6722 348.589C16.6722 346.802 16.4976 345.417 16.1482 344.433L11.4945 353.722C11.9976 354.443 12.6894 354.803 13.5698 354.803Z" fill="url(#paint26_linear_175_1885)" fill-opacity="0.6"/>
<path d="M13.5698 365.004C15.0651 365.004 16.1971 365.635 16.9657 366.895C17.7483 368.142 18.1396 369.957 18.1396 372.34C18.1396 374.723 17.7483 376.545 16.9657 377.806C16.1971 379.067 15.0651 379.697 13.5698 379.697C12.0885 379.697 10.9565 379.067 10.1739 377.806C9.3913 376.545 9 374.723 9 372.34C9 369.971 9.3913 368.156 10.1739 366.895C10.9565 365.635 12.0885 365.004 13.5698 365.004ZM10.4883 372.34C10.4883 374.031 10.6421 375.354 10.9495 376.31L15.6032 367.103C15.114 366.452 14.4363 366.126 13.5698 366.126C12.6055 366.126 11.8509 366.639 11.3059 367.664C10.7608 368.676 10.4883 370.234 10.4883 372.34ZM13.5698 378.554C14.5481 378.554 15.3097 378.049 15.8547 377.037C16.3997 376.012 16.6722 374.446 16.6722 372.34C16.6722 370.553 16.4976 369.168 16.1482 368.184L11.4945 377.474C11.9976 378.194 12.6894 378.554 13.5698 378.554Z" fill="url(#paint27_linear_175_1885)" fill-opacity="0.6"/>
<path d="M14.8276 402.139H17.909V403.24H9.92235V402.139H13.486V390.459L10.09 392.475L9.5031 391.54L13.6956 388.963H14.8276V402.139Z" fill="url(#paint28_linear_175_1885)" fill-opacity="0.6"/>
<path d="M13.5698 412.506C15.0651 412.506 16.1971 413.137 16.9657 414.398C17.7483 415.644 18.1396 417.459 18.1396 419.842C18.1396 422.225 17.7483 424.047 16.9657 425.308C16.1971 426.569 15.0651 427.199 13.5698 427.199C12.0885 427.199 10.9565 426.569 10.1739 425.308C9.3913 424.047 9 422.225 9 419.842C9 417.473 9.3913 415.658 10.1739 414.398C10.9565 413.137 12.0885 412.506 13.5698 412.506ZM10.4883 419.842C10.4883 421.533 10.6421 422.856 10.9495 423.812L15.6032 414.605C15.114 413.954 14.4363 413.629 13.5698 413.629C12.6055 413.629 11.8509 414.141 11.3059 415.166C10.7608 416.178 10.4883 417.737 10.4883 419.842ZM13.5698 426.056C14.5481 426.056 15.3097 425.551 15.8547 424.539C16.3997 423.514 16.6722 421.948 16.6722 419.842C16.6722 418.055 16.4976 416.67 16.1482 415.686L11.4945 424.976C11.9976 425.696 12.6894 426.056 13.5698 426.056Z" fill="url(#paint29_linear_175_1885)" fill-opacity="0.6"/>
<path d="M14.8276 449.641H17.909V450.743H9.92235V449.641H13.486V437.962L10.09 439.977L9.5031 439.042L13.6956 436.465H14.8276V449.641Z" fill="url(#paint30_linear_175_1885)" fill-opacity="0.6"/>
<path d="M14.8276 473.392H17.909V474.494H9.92235V473.392H13.486V461.713L10.09 463.728L9.5031 462.793L13.6956 460.216H14.8276V473.392Z" fill="url(#paint31_linear_175_1885)" fill-opacity="0.6"/>
<path d="M53.7577 307.135H56.8392V308.236H48.8525V307.135H52.4162V295.455L49.0202 297.471L48.4333 296.536L52.6258 293.959H53.7577V307.135Z" fill="url(#paint32_linear_175_1885)" fill-opacity="0.6"/>
<path d="M52.5 317.502C53.9953 317.502 55.1273 318.133 55.8959 319.393C56.6785 320.64 57.0698 322.455 57.0698 324.838C57.0698 327.221 56.6785 329.043 55.8959 330.304C55.1273 331.565 53.9953 332.195 52.5 332.195C51.0187 332.195 49.8867 331.565 49.1041 330.304C48.3215 329.043 47.9302 327.221 47.9302 324.838C47.9302 322.469 48.3215 320.654 49.1041 319.393C49.8867 318.133 51.0187 317.502 52.5 317.502ZM49.4185 324.838C49.4185 326.529 49.5723 327.852 49.8797 328.808L54.5334 319.601C54.0442 318.95 53.3664 318.624 52.5 318.624C51.5357 318.624 50.7811 319.137 50.2361 320.162C49.691 321.174 49.4185 322.732 49.4185 324.838ZM52.5 331.052C53.4782 331.052 54.2399 330.546 54.7849 329.535C55.3299 328.51 55.6024 326.944 55.6024 324.838C55.6024 323.051 55.4277 321.665 55.0784 320.682L50.4247 329.971C50.9278 330.692 51.6196 331.052 52.5 331.052Z" fill="url(#paint33_linear_175_1885)" fill-opacity="0.6"/>
<path d="M53.7577 354.637H56.8392V355.738H48.8525V354.637H52.4162V342.957L49.0202 344.973L48.4333 344.038L52.6258 341.461H53.7577V354.637Z" fill="url(#paint34_linear_175_1885)" fill-opacity="0.6"/>
<path d="M53.7577 378.388H56.8392V379.489H48.8525V378.388H52.4162V366.708L49.0202 368.724L48.4333 367.789L52.6258 365.212H53.7577V378.388Z" fill="url(#paint35_linear_175_1885)" fill-opacity="0.6"/>
<path d="M52.5 388.755C53.9953 388.755 55.1273 389.386 55.8959 390.646C56.6785 391.893 57.0698 393.708 57.0698 396.091C57.0698 398.474 56.6785 400.296 55.8959 401.557C55.1273 402.818 53.9953 403.448 52.5 403.448C51.0187 403.448 49.8867 402.818 49.1041 401.557C48.3215 400.296 47.9302 398.474 47.9302 396.091C47.9302 393.722 48.3215 391.907 49.1041 390.646C49.8867 389.386 51.0187 388.755 52.5 388.755ZM49.4185 396.091C49.4185 397.782 49.5723 399.105 49.8797 400.061L54.5334 390.854C54.0442 390.203 53.3664 389.878 52.5 389.878C51.5357 389.878 50.7811 390.39 50.2361 391.415C49.691 392.427 49.4185 393.985 49.4185 396.091ZM52.5 402.305C53.4782 402.305 54.2399 401.8 54.7849 400.788C55.3299 399.763 55.6024 398.197 55.6024 396.091C55.6024 394.304 55.4277 392.919 55.0784 391.935L50.4247 401.225C50.9278 401.945 51.6196 402.305 52.5 402.305Z" fill="url(#paint36_linear_175_1885)" fill-opacity="0.6"/>
<path d="M53.7577 425.89H56.8392V426.992H48.8525V425.89H52.4162V414.21L49.0202 416.226L48.4333 415.291L52.6258 412.714H53.7577V425.89Z" fill="url(#paint37_linear_175_1885)" fill-opacity="0.6"/>
<path d="M53.7577 449.641H56.8392V450.743H48.8525V449.641H52.4162V437.962L49.0202 439.977L48.4333 439.042L52.6258 436.465H53.7577V449.641Z" fill="url(#paint38_linear_175_1885)" fill-opacity="0.6"/>
<path d="M52.5 460.008C53.9953 460.008 55.1273 460.639 55.8959 461.9C56.6785 463.147 57.0698 464.962 57.0698 467.345C57.0698 469.728 56.6785 471.549 55.8959 472.81C55.1273 474.071 53.9953 474.701 52.5 474.701C51.0187 474.701 49.8867 474.071 49.1041 472.81C48.3215 471.549 47.9302 469.728 47.9302 467.345C47.9302 464.975 48.3215 463.16 49.1041 461.9C49.8867 460.639 51.0187 460.008 52.5 460.008ZM49.4185 467.345C49.4185 469.035 49.5723 470.358 49.8797 471.314L54.5334 462.107C54.0442 461.456 53.3664 461.131 52.5 461.131C51.5357 461.131 50.7811 461.643 50.2361 462.669C49.691 463.68 49.4185 465.239 49.4185 467.345ZM52.5 473.558C53.4782 473.558 54.2399 473.053 54.7849 472.041C55.3299 471.016 55.6024 469.451 55.6024 467.345C55.6024 465.557 55.4277 464.172 55.0784 463.188L50.4247 472.478C50.9278 473.198 51.6196 473.558 52.5 473.558Z" fill="url(#paint39_linear_175_1885)" fill-opacity="0.6"/>
<path d="M53.7577 497.143H56.8392V498.245H48.8525V497.143H52.4162V485.464L49.0202 487.48L48.4333 486.544L52.6258 483.967H53.7577V497.143Z" fill="url(#paint40_linear_175_1885)" fill-opacity="0.6"/>
<path d="M52.5 507.511C53.9953 507.511 55.1273 508.141 55.8959 509.402C56.6785 510.649 57.0698 512.464 57.0698 514.847C57.0698 517.23 56.6785 519.052 55.8959 520.312C55.1273 521.573 53.9953 522.204 52.5 522.204C51.0187 522.204 49.8867 521.573 49.1041 520.312C48.3215 519.052 47.9302 517.23 47.9302 514.847C47.9302 512.478 48.3215 510.663 49.1041 509.402C49.8867 508.141 51.0187 507.511 52.5 507.511ZM49.4185 514.847C49.4185 516.537 49.5723 517.86 49.8797 518.816L54.5334 509.61C54.0442 508.958 53.3664 508.633 52.5 508.633C51.5357 508.633 50.7811 509.145 50.2361 510.171C49.691 511.182 49.4185 512.741 49.4185 514.847ZM52.5 521.061C53.4782 521.061 54.2399 520.555 54.7849 519.543C55.3299 518.518 55.6024 516.953 55.6024 514.847C55.6024 513.059 55.4277 511.674 55.0784 510.69L50.4247 519.98C50.9278 520.7 51.6196 521.061 52.5 521.061Z" fill="url(#paint41_linear_175_1885)" fill-opacity="0.6"/>
<path d="M91.4302 293.751C92.9255 293.751 94.0575 294.381 94.8261 295.642C95.6087 296.889 96 298.704 96 301.087C96 303.47 95.6087 305.292 94.8261 306.553C94.0575 307.814 92.9255 308.444 91.4302 308.444C89.9489 308.444 88.8169 307.814 88.0343 306.553C87.2517 305.292 86.8604 303.47 86.8604 301.087C86.8604 298.718 87.2517 296.903 88.0343 295.642C88.8169 294.381 89.9489 293.751 91.4302 293.751ZM88.3487 301.087C88.3487 302.777 88.5024 304.101 88.8099 305.057L93.4636 295.85C92.9744 295.199 92.2966 294.873 91.4302 294.873C90.4659 294.873 89.7113 295.386 89.1663 296.411C88.6212 297.423 88.3487 298.981 88.3487 301.087ZM91.4302 307.301C92.4084 307.301 93.1701 306.795 93.7151 305.784C94.2601 304.759 94.5326 303.193 94.5326 301.087C94.5326 299.3 94.3579 297.914 94.0086 296.931L89.3549 306.22C89.858 306.941 90.5498 307.301 91.4302 307.301Z" fill="url(#paint42_linear_175_1885)" fill-opacity="0.6"/>
<path d="M92.6879 330.886H95.7694V331.987H87.7827V330.886H91.3463V319.206L87.9504 321.222L87.3635 320.287L91.556 317.71H92.6879V330.886Z" fill="url(#paint43_linear_175_1885)" fill-opacity="0.6"/>
<path d="M92.6879 354.637H95.7694V355.738H87.7827V354.637H91.3463V342.957L87.9504 344.973L87.3635 344.038L91.556 341.461H92.6879V354.637Z" fill="url(#paint44_linear_175_1885)" fill-opacity="0.6"/>
<path d="M91.4302 365.004C92.9255 365.004 94.0575 365.635 94.8261 366.895C95.6087 368.142 96 369.957 96 372.34C96 374.723 95.6087 376.545 94.8261 377.806C94.0575 379.067 92.9255 379.697 91.4302 379.697C89.9489 379.697 88.8169 379.067 88.0343 377.806C87.2517 376.545 86.8604 374.723 86.8604 372.34C86.8604 369.971 87.2517 368.156 88.0343 366.895C88.8169 365.635 89.9489 365.004 91.4302 365.004ZM88.3487 372.34C88.3487 374.031 88.5024 375.354 88.8099 376.31L93.4636 367.103C92.9744 366.452 92.2966 366.126 91.4302 366.126C90.4659 366.126 89.7113 366.639 89.1663 367.664C88.6212 368.676 88.3487 370.234 88.3487 372.34ZM91.4302 378.554C92.4084 378.554 93.1701 378.049 93.7151 377.037C94.2601 376.012 94.5326 374.446 94.5326 372.34C94.5326 370.553 94.3579 369.168 94.0086 368.184L89.3549 377.474C89.858 378.194 90.5498 378.554 91.4302 378.554Z" fill="url(#paint45_linear_175_1885)" fill-opacity="0.6"/>
<path d="M91.4302 388.755C92.9255 388.755 94.0575 389.386 94.8261 390.646C95.6087 391.893 96 393.708 96 396.091C96 398.474 95.6087 400.296 94.8261 401.557C94.0575 402.818 92.9255 403.448 91.4302 403.448C89.9489 403.448 88.8169 402.818 88.0343 401.557C87.2517 400.296 86.8604 398.474 86.8604 396.091C86.8604 393.722 87.2517 391.907 88.0343 390.646C88.8169 389.386 89.9489 388.755 91.4302 388.755ZM88.3487 396.091C88.3487 397.782 88.5024 399.105 88.8099 400.061L93.4636 390.854C92.9744 390.203 92.2966 389.878 91.4302 389.878C90.4659 389.878 89.7113 390.39 89.1663 391.415C88.6212 392.427 88.3487 393.985 88.3487 396.091ZM91.4302 402.305C92.4084 402.305 93.1701 401.8 93.7151 400.788C94.2601 399.763 94.5326 398.197 94.5326 396.091C94.5326 394.304 94.3579 392.919 94.0086 391.935L89.3549 401.225C89.858 401.945 90.5498 402.305 91.4302 402.305Z" fill="url(#paint46_linear_175_1885)" fill-opacity="0.6"/>
<defs>
<filter id="filter0_f_175_1885" x="-558.19" y="-716.19" width="2141.38" height="1500.38" filterUnits="userSpaceOnUse" color-interpolation-filters="sRGB">
<feFlood flood-opacity="0" result="BackgroundImageFix"/>
<feBlend mode="normal" in="SourceGraphic" in2="BackgroundImageFix" result="shape"/>
<feGaussianBlur stdDeviation="200.095" result="effect1_foregroundBlur_175_1885"/>
</filter>
<linearGradient id="paint0_linear_175_1885" x1="52.5" y1="270" x2="52.5" y2="581.381" gradientUnits="userSpaceOnUse">
<stop stop-color="#F7DD43"/>
<stop offset="1" stop-color="#F7DD43" stop-opacity="0"/>
</linearGradient>
<linearGradient id="paint1_linear_175_1885" x1="52.5" y1="270" x2="52.5" y2="581.381" gradientUnits="userSpaceOnUse">
<stop stop-color="#F7DD43"/>
<stop offset="1" stop-color="#F7DD43" stop-opacity="0"/>
</linearGradient>
<linearGradient id="paint2_linear_175_1885" x1="52.5" y1="270" x2="52.5" y2="581.381" gradientUnits="userSpaceOnUse">
<stop stop-color="#F7DD43"/>
<stop offset="1" stop-color="#F7DD43" stop-opacity="0"/>
</linearGradient>
<linearGradient id="paint3_linear_175_1885" x1="52.5" y1="270" x2="52.5" y2="581.381" gradientUnits="userSpaceOnUse">
<stop stop-color="#F7DD43"/>
<stop offset="1" stop-color="#F7DD43" stop-opacity="0"/>
</linearGradient>
<linearGradient id="paint4_linear_175_1885" x1="52.5" y1="270" x2="52.5" y2="581.381" gradientUnits="userSpaceOnUse">
<stop stop-color="#F7DD43"/>
<stop offset="1" stop-color="#F7DD43" stop-opacity="0"/>
</linearGradient>
<linearGradient id="paint5_linear_175_1885" x1="52.5" y1="270" x2="52.5" y2="581.381" gradientUnits="userSpaceOnUse">
<stop stop-color="#F7DD43"/>
<stop offset="1" stop-color="#F7DD43" stop-opacity="0"/>
</linearGradient>
<linearGradient id="paint6_linear_175_1885" x1="52.5" y1="270" x2="52.5" y2="581.381" gradientUnits="userSpaceOnUse">
<stop stop-color="#F7DD43"/>
<stop offset="1" stop-color="#F7DD43" stop-opacity="0"/>
</linearGradient>
<linearGradient id="paint7_linear_175_1885" x1="52.5" y1="270" x2="52.5" y2="581.381" gradientUnits="userSpaceOnUse">
<stop stop-color="#F7DD43"/>
<stop offset="1" stop-color="#F7DD43" stop-opacity="0"/>
</linearGradient>
<linearGradient id="paint8_linear_175_1885" x1="52.5" y1="270" x2="52.5" y2="581.381" gradientUnits="userSpaceOnUse">
<stop stop-color="#F7DD43"/>
<stop offset="1" stop-color="#F7DD43" stop-opacity="0"/>
</linearGradient>
<linearGradient id="paint9_linear_175_1885" x1="52.5" y1="270" x2="52.5" y2="581.381" gradientUnits="userSpaceOnUse">
<stop stop-color="#F7DD43"/>
<stop offset="1" stop-color="#F7DD43" stop-opacity="0"/>
</linearGradient>
<linearGradient id="paint10_linear_175_1885" x1="52.5" y1="270" x2="52.5" y2="581.381" gradientUnits="userSpaceOnUse">
<stop stop-color="#F7DD43"/>
<stop offset="1" stop-color="#F7DD43" stop-opacity="0"/>
</linearGradient>
<linearGradient id="paint11_linear_175_1885" x1="52.5" y1="270" x2="52.5" y2="581.381" gradientUnits="userSpaceOnUse">
<stop stop-color="#F7DD43"/>
<stop offset="1" stop-color="#F7DD43" stop-opacity="0"/>
</linearGradient>
<linearGradient id="paint12_linear_175_1885" x1="52.5" y1="270" x2="52.5" y2="581.381" gradientUnits="userSpaceOnUse">
<stop stop-color="#F7DD43"/>
<stop offset="1" stop-color="#F7DD43" stop-opacity="0"/>
</linearGradient>
<linearGradient id="paint13_linear_175_1885" x1="52.5" y1="270" x2="52.5" y2="581.381" gradientUnits="userSpaceOnUse">
<stop stop-color="#F7DD43"/>
<stop offset="1" stop-color="#F7DD43" stop-opacity="0"/>
</linearGradient>
<linearGradient id="paint14_linear_175_1885" x1="52.5" y1="270" x2="52.5" y2="581.381" gradientUnits="userSpaceOnUse">
<stop stop-color="#F7DD43"/>
<stop offset="1" stop-color="#F7DD43" stop-opacity="0"/>
</linearGradient>
<linearGradient id="paint15_linear_175_1885" x1="52.5" y1="270" x2="52.5" y2="581.381" gradientUnits="userSpaceOnUse">
<stop stop-color="#F7DD43"/>
<stop offset="1" stop-color="#F7DD43" stop-opacity="0"/>
</linearGradient>
<linearGradient id="paint16_linear_175_1885" x1="52.5" y1="270" x2="52.5" y2="581.381" gradientUnits="userSpaceOnUse">
<stop stop-color="#F7DD43"/>
<stop offset="1" stop-color="#F7DD43" stop-opacity="0"/>
</linearGradient>
<linearGradient id="paint17_linear_175_1885" x1="52.5" y1="270" x2="52.5" y2="581.381" gradientUnits="userSpaceOnUse">
<stop stop-color="#F7DD43"/>
<stop offset="1" stop-color="#F7DD43" stop-opacity="0"/>
</linearGradient>
<linearGradient id="paint18_linear_175_1885" x1="52.5" y1="270" x2="52.5" y2="581.381" gradientUnits="userSpaceOnUse">
<stop stop-color="#F7DD43"/>
<stop offset="1" stop-color="#F7DD43" stop-opacity="0"/>
</linearGradient>
<linearGradient id="paint19_linear_175_1885" x1="52.5" y1="270" x2="52.5" y2="581.381" gradientUnits="userSpaceOnUse">
<stop stop-color="#F7DD43"/>
<stop offset="1" stop-color="#F7DD43" stop-opacity="0"/>
</linearGradient>
<linearGradient id="paint20_linear_175_1885" x1="52.5" y1="270" x2="52.5" y2="581.381" gradientUnits="userSpaceOnUse">
<stop stop-color="#F7DD43"/>
<stop offset="1" stop-color="#F7DD43" stop-opacity="0"/>
</linearGradient>
<linearGradient id="paint21_linear_175_1885" x1="52.5" y1="270" x2="52.5" y2="581.381" gradientUnits="userSpaceOnUse">
<stop stop-color="#F7DD43"/>
<stop offset="1" stop-color="#F7DD43" stop-opacity="0"/>
</linearGradient>
<linearGradient id="paint22_linear_175_1885" x1="52.5" y1="270" x2="52.5" y2="581.381" gradientUnits="userSpaceOnUse">
<stop stop-color="#F7DD43"/>
<stop offset="1" stop-color="#F7DD43" stop-opacity="0"/>
</linearGradient>
<linearGradient id="paint23_linear_175_1885" x1="52.5" y1="270" x2="52.5" y2="581.381" gradientUnits="userSpaceOnUse">
<stop stop-color="#F7DD43"/>
<stop offset="1" stop-color="#F7DD43" stop-opacity="0"/>
</linearGradient>
<linearGradient id="paint24_linear_175_1885" x1="52.5" y1="270" x2="52.5" y2="581.381" gradientUnits="userSpaceOnUse">
<stop stop-color="#F7DD43"/>
<stop offset="1" stop-color="#F7DD43" stop-opacity="0"/>
</linearGradient>
<linearGradient id="paint25_linear_175_1885" x1="52.5" y1="270" x2="52.5" y2="581.381" gradientUnits="userSpaceOnUse">
<stop stop-color="#F7DD43"/>
<stop offset="1" stop-color="#F7DD43" stop-opacity="0"/>
</linearGradient>
<linearGradient id="paint26_linear_175_1885" x1="52.5" y1="270" x2="52.5" y2="581.381" gradientUnits="userSpaceOnUse">
<stop stop-color="#F7DD43"/>
<stop offset="1" stop-color="#F7DD43" stop-opacity="0"/>
</linearGradient>
<linearGradient id="paint27_linear_175_1885" x1="52.5" y1="270" x2="52.5" y2="581.381" gradientUnits="userSpaceOnUse">
<stop stop-color="#F7DD43"/>
<stop offset="1" stop-color="#F7DD43" stop-opacity="0"/>
</linearGradient>
<linearGradient id="paint28_linear_175_1885" x1="52.5" y1="270" x2="52.5" y2="581.381" gradientUnits="userSpaceOnUse">
<stop stop-color="#F7DD43"/>
<stop offset="1" stop-color="#F7DD43" stop-opacity="0"/>
</linearGradient>
<linearGradient id="paint29_linear_175_1885" x1="52.5" y1="270" x2="52.5" y2="581.381" gradientUnits="userSpaceOnUse">
<stop stop-color="#F7DD43"/>
<stop offset="1" stop-color="#F7DD43" stop-opacity="0"/>
</linearGradient>
<linearGradient id="paint30_linear_175_1885" x1="52.5" y1="270" x2="52.5" y2="581.381" gradientUnits="userSpaceOnUse">
<stop stop-color="#F7DD43"/>
<stop offset="1" stop-color="#F7DD43" stop-opacity="0"/>
</linearGradient>
<linearGradient id="paint31_linear_175_1885" x1="52.5" y1="270" x2="52.5" y2="581.381" gradientUnits="userSpaceOnUse">
<stop stop-color="#F7DD43"/>
<stop offset="1" stop-color="#F7DD43" stop-opacity="0"/>
</linearGradient>
<linearGradient id="paint32_linear_175_1885" x1="52.5" y1="270" x2="52.5" y2="581.381" gradientUnits="userSpaceOnUse">
<stop stop-color="#F7DD43"/>
<stop offset="1" stop-color="#F7DD43" stop-opacity="0"/>
</linearGradient>
<linearGradient id="paint33_linear_175_1885" x1="52.5" y1="270" x2="52.5" y2="581.381" gradientUnits="userSpaceOnUse">
<stop stop-color="#F7DD43"/>
<stop offset="1" stop-color="#F7DD43" stop-opacity="0"/>
</linearGradient>
<linearGradient id="paint34_linear_175_1885" x1="52.5" y1="270" x2="52.5" y2="581.381" gradientUnits="userSpaceOnUse">
<stop stop-color="#F7DD43"/>
<stop offset="1" stop-color="#F7DD43" stop-opacity="0"/>
</linearGradient>
<linearGradient id="paint35_linear_175_1885" x1="52.5" y1="270" x2="52.5" y2="581.381" gradientUnits="userSpaceOnUse">
<stop stop-color="#F7DD43"/>
<stop offset="1" stop-color="#F7DD43" stop-opacity="0"/>
</linearGradient>
<linearGradient id="paint36_linear_175_1885" x1="52.5" y1="270" x2="52.5" y2="581.381" gradientUnits="userSpaceOnUse">
<stop stop-color="#F7DD43"/>
<stop offset="1" stop-color="#F7DD43" stop-opacity="0"/>
</linearGradient>
<linearGradient id="paint37_linear_175_1885" x1="52.5" y1="270" x2="52.5" y2="581.381" gradientUnits="userSpaceOnUse">
<stop stop-color="#F7DD43"/>
<stop offset="1" stop-color="#F7DD43" stop-opacity="0"/>
</linearGradient>
<linearGradient id="paint38_linear_175_1885" x1="52.5" y1="270" x2="52.5" y2="581.381" gradientUnits="userSpaceOnUse">
<stop stop-color="#F7DD43"/>
<stop offset="1" stop-color="#F7DD43" stop-opacity="0"/>
</linearGradient>
<linearGradient id="paint39_linear_175_1885" x1="52.5" y1="270" x2="52.5" y2="581.381" gradientUnits="userSpaceOnUse">
<stop stop-color="#F7DD43"/>
<stop offset="1" stop-color="#F7DD43" stop-opacity="0"/>
</linearGradient>
<linearGradient id="paint40_linear_175_1885" x1="52.5" y1="270" x2="52.5" y2="581.381" gradientUnits="userSpaceOnUse">
<stop stop-color="#F7DD43"/>
<stop offset="1" stop-color="#F7DD43" stop-opacity="0"/>
</linearGradient>
<linearGradient id="paint41_linear_175_1885" x1="52.5" y1="270" x2="52.5" y2="581.381" gradientUnits="userSpaceOnUse">
<stop stop-color="#F7DD43"/>
<stop offset="1" stop-color="#F7DD43" stop-opacity="0"/>
</linearGradient>
<linearGradient id="paint42_linear_175_1885" x1="52.5" y1="270" x2="52.5" y2="581.381" gradientUnits="userSpaceOnUse">
<stop stop-color="#F7DD43"/>
<stop offset="1" stop-color="#F7DD43" stop-opacity="0"/>
</linearGradient>
<linearGradient id="paint43_linear_175_1885" x1="52.5" y1="270" x2="52.5" y2="581.381" gradientUnits="userSpaceOnUse">
<stop stop-color="#F7DD43"/>
<stop offset="1" stop-color="#F7DD43" stop-opacity="0"/>
</linearGradient>
<linearGradient id="paint44_linear_175_1885" x1="52.5" y1="270" x2="52.5" y2="581.381" gradientUnits="userSpaceOnUse">
<stop stop-color="#F7DD43"/>
<stop offset="1" stop-color="#F7DD43" stop-opacity="0"/>
</linearGradient>
<linearGradient id="paint45_linear_175_1885" x1="52.5" y1="270" x2="52.5" y2="581.381" gradientUnits="userSpaceOnUse">
<stop stop-color="#F7DD43"/>
<stop offset="1" stop-color="#F7DD43" stop-opacity="0"/>
</linearGradient>
<linearGradient id="paint46_linear_175_1885" x1="52.5" y1="270" x2="52.5" y2="581.381" gradientUnits="userSpaceOnUse">
<stop stop-color="#F7DD43"/>
<stop offset="1" stop-color="#F7DD43" stop-opacity="0"/>
</linearGradient>
</defs>
</svg>
