<svg width="50" height="51" viewBox="0 0 50 51" fill="none" xmlns="http://www.w3.org/2000/svg">
<g clip-path="url(#clip0_402_158)">
<path d="M35.8695 3.38972C32.5828 1.80046 28.8955 0.909058 25 0.909058C21.1045 0.909058 17.4172 1.80046 14.1305 3.38972L11.9565 25.9091L14.1305 48.4284C17.4172 50.0177 21.1045 50.9091 25 50.9091C28.8955 50.9091 32.5828 50.0177 35.8695 48.4284L38.0435 25.9091L35.8695 3.38972Z" fill="#D80027"/>
<path d="M14.1305 3.39062C5.76816 7.43428 0 15.9977 0 25.9091C0 35.8205 5.76816 44.3839 14.1305 48.4275V3.39062Z" fill="black"/>
<path d="M35.8695 3.39062V48.4275C44.2318 44.3839 50 35.8205 50 25.9091C50 15.9977 44.2318 7.43428 35.8695 3.39062Z" fill="#496E2D"/>
<path d="M25 17.2134C20.1975 17.2134 16.3044 21.1066 16.3044 25.909C16.3044 30.7115 20.1976 34.6047 25 34.6047C29.8025 34.6047 33.6957 30.7115 33.6957 25.909C33.6957 21.1066 29.8026 17.2134 25 17.2134ZM25 31.3438C21.9985 31.3438 19.5653 28.9105 19.5653 25.909C19.5653 22.9076 21.9986 20.4743 25 20.4743C28.0015 20.4743 30.4348 22.9076 30.4348 25.909C30.4348 28.9105 28.0016 31.3438 25 31.3438Z" fill="#FFDA44"/>
<path d="M25.0001 22.6482C23.7994 22.6482 22.8262 23.6214 22.8262 24.8221V28.083H27.174V24.8221C27.174 23.6214 26.2008 22.6482 25.0001 22.6482V22.6482Z" fill="#FFDA44"/>
</g>
<defs>
<clipPath id="clip0_402_158">
<rect width="50" height="50" fill="white" transform="translate(0 0.909058)"/>
</clipPath>
</defs>
</svg>
