<svg width="50" height="51" viewBox="0 0 50 51" fill="none" xmlns="http://www.w3.org/2000/svg">
<g clip-path="url(#clip0_402_158)">
<path d="M35.8695 3.38972C32.5828 1.80046 28.8955 0.909058 25 0.909058C21.1045 0.909058 17.4172 1.80046 14.1305 3.38972L11.9565 25.9091L14.1305 48.4284C17.4172 50.0177 21.1045 50.9091 25 50.9091C28.8955 50.9091 32.5828 50.0177 35.8695 48.4284L38.0435 25.9091L35.8695 3.38972Z" fill="#FFDA44"/>
<path d="M24.9998 17.2135L27.158 23.8561H34.1431L28.4924 27.9618L30.6507 34.6047L24.9998 30.4992L19.3489 34.6047L21.5076 27.9618L15.8568 23.8561H22.8415L24.9998 17.2135Z" fill="#496E2D"/>
<path d="M14.1305 3.39062C5.76816 7.43428 0 15.9977 0 25.9091C0 35.8205 5.76816 44.3839 14.1305 48.4275V3.39062Z" fill="#496E2D"/>
<path d="M35.8695 3.39062V48.4275C44.2318 44.3839 50 35.8205 50 25.9091C50 15.9977 44.2318 7.43428 35.8695 3.39062Z" fill="#D80027"/>
</g>
<defs>
<clipPath id="clip0_402_158">
<rect width="50" height="50" fill="white" transform="translate(0 0.909058)"/>
</clipPath>
</defs>
</svg>
