<svg width="50" height="51" viewBox="0 0 50 51" fill="none" xmlns="http://www.w3.org/2000/svg">
<g clip-path="url(#clip0_402_158)">
<path d="M0 25.9091C0 12.102 11.193 0.909058 25 0.909058C38.807 0.909058 50 12.102 50 25.9091L25 28.083L0 25.9091Z" fill="#FFDA44"/>
<path d="M3.34534 38.409C7.66809 45.8813 15.7466 50.909 25 50.909C34.2534 50.909 42.332 45.8813 46.6547 38.409L25 36.7786L3.34534 38.409Z" fill="#D80027"/>
<path d="M46.6547 38.4091C48.7818 34.7319 50 30.4629 50 25.9091H0C0 30.4629 1.21816 34.7319 3.34531 38.4091H46.6547Z" fill="#0052B4"/>
<path d="M25 34.6047C29.8025 34.6047 33.6957 30.7115 33.6957 25.909C33.6957 21.1066 29.8025 17.2134 25 17.2134C20.1976 17.2134 16.3044 21.1066 16.3044 25.909C16.3044 30.7115 20.1976 34.6047 25 34.6047Z" fill="#FFDA44"/>
<path d="M25 31.3438C22.0032 31.3438 19.5652 28.9057 19.5652 25.909V22.6482C19.5652 19.6514 22.0033 17.2134 25 17.2134C27.9966 17.2134 30.4347 19.6515 30.4347 22.6482V25.909C30.4347 28.9058 27.9967 31.3438 25 31.3438Z" fill="#338AF3"/>
<path d="M33.6956 12.8656H27.1738C27.1738 11.665 26.2005 10.6917 24.9999 10.6917C23.7993 10.6917 22.826 11.665 22.826 12.8656H16.3042C16.3042 14.0663 17.35 15.0395 18.5505 15.0395H18.4781C18.4781 16.2402 19.4514 17.2134 20.6521 17.2134C20.6521 18.4141 21.6253 19.3874 22.826 19.3874H27.1738C28.3745 19.3874 29.3478 18.4141 29.3478 17.2134C30.5484 17.2134 31.5217 16.2402 31.5217 15.0395H31.4493C32.6499 15.0395 33.6956 14.0662 33.6956 12.8656V12.8656Z" fill="black"/>
</g>
<defs>
<clipPath id="clip0_402_158">
<rect width="50" height="50" fill="white" transform="translate(0 0.909058)"/>
</clipPath>
</defs>
</svg>
