<svg width="50" height="51" viewBox="0 0 50 51" fill="none" xmlns="http://www.w3.org/2000/svg">
<g clip-path="url(#clip0_402_158)">
<path d="M25 50.9091C38.8071 50.9091 50 39.7162 50 25.9091C50 12.1019 38.8071 0.909058 25 0.909058C11.1929 0.909058 0 12.1019 0 25.9091C0 39.7162 11.1929 50.9091 25 50.9091Z" fill="#D80027"/>
<path d="M39.1305 19.4646H30.0752C30.6342 18.8793 30.9782 18.0868 30.9782 17.2135C30.9782 15.4126 29.5183 13.9526 27.7174 13.9526C26.5828 13.9526 25.5841 14.5323 25 15.4113C24.4159 14.5323 23.4171 13.9526 22.2826 13.9526C20.4817 13.9526 19.0218 15.4126 19.0218 17.2135C19.0218 18.0868 19.3658 18.8794 19.9248 19.4646H10.8696C10.8696 21.8659 12.9611 23.8124 15.3622 23.8124H15.2173C15.2173 26.2138 17.1639 28.1604 19.5652 28.1604C19.5652 28.9381 19.7702 29.6672 20.128 30.2984L16.5216 33.905L19.2886 36.6718L23.2136 32.7469C23.3673 32.8032 23.5264 32.8484 23.6906 32.8792L21.3188 38.2342L25 42.2135L28.6812 38.234L26.3094 32.879C26.4737 32.8482 26.6327 32.8031 26.7864 32.7467L30.7114 36.6716L33.4784 33.9047L29.8719 30.2981C30.2298 29.667 30.4348 28.9378 30.4348 28.1601C32.836 28.1601 34.7826 26.2136 34.7826 23.8121H34.6378C37.0389 23.8123 39.1305 21.8659 39.1305 19.4646V19.4646Z" fill="black"/>
</g>
<defs>
<clipPath id="clip0_402_158">
<rect width="50" height="50" fill="white" transform="translate(0 0.909058)"/>
</clipPath>
</defs>
</svg>
