<svg width="50" height="51" viewBox="0 0 50 51" fill="none" xmlns="http://www.w3.org/2000/svg">
<g clip-path="url(#clip0_402_158)">
<path d="M25 50.9091C38.8071 50.9091 50 39.7162 50 25.9091C50 12.1019 38.8071 0.909058 25 0.909058C11.1929 0.909058 0 12.1019 0 25.9091C0 39.7162 11.1929 50.9091 25 50.9091Z" fill="#F0F0F0"/>
<path d="M50 25.909C50 15.9975 44.2319 7.43346 35.8695 3.38971V48.4283C44.2319 44.3846 50 35.8206 50 25.909V25.909Z" fill="#D80027"/>
<path d="M0 25.909C0 35.8206 5.76807 44.3846 14.1305 48.4284V3.38971C5.76807 7.43346 0 15.9975 0 25.909Z" fill="#D80027"/>
<path d="M29.3479 29.1699L33.6957 26.996L31.5218 25.909V23.7351L27.174 25.909L29.3479 21.5612H27.174L25 18.3004L22.8261 21.5612H20.6522L22.8261 25.909L18.4783 23.7351V25.909L16.3044 26.996L20.6522 29.1699L19.5653 31.3438H23.9131V34.6047H26.087V31.3438H30.4348L29.3479 29.1699Z" fill="#D80027"/>
</g>
<defs>
<clipPath id="clip0_402_158">
<rect width="50" height="50" fill="white" transform="translate(0 0.909058)"/>
</clipPath>
</defs>
</svg>
