<svg width="50" height="51" viewBox="0 0 50 51" fill="none" xmlns="http://www.w3.org/2000/svg">
<g clip-path="url(#clip0_402_158)">
<path d="M25 50.9091C38.8071 50.9091 50 39.7162 50 25.9091C50 12.1019 38.8071 0.909058 25 0.909058C11.1929 0.909058 0 12.1019 0 25.9091C0 39.7162 11.1929 50.9091 25 50.9091Z" fill="#F0F0F0"/>
<path d="M50 25.9091C50 39.7161 38.807 50.9091 25 50.9091C11.193 50.9091 0 39.7161 0 25.9091" fill="#496E2D"/>
<path d="M43.263 18.3059C42.369 15.7704 39.9533 13.9526 37.112 13.9526H31.5217C27.9199 13.9526 25 16.8726 25 20.4744C25 21.6512 25.3132 22.7821 25.8584 23.7353C23.7826 23.7183 21.8614 23.7496 20.6521 23.7353C20.6521 21.22 20.6521 18.0159 20.6521 17.3455L20.9089 17.0887C22.0619 15.9357 21.6774 14.0143 21.6774 14.0143C21.6774 14.0143 19.7561 13.63 18.6032 14.7829L17.2595 16.1266H15.7608C12.459 16.1266 9.78257 18.8031 9.78257 22.1048H14.1304V26.9961C14.1304 27.7115 14.2747 28.3931 14.5353 29.0138L13.0434 30.2569H10.8695V28.083H8.69556V32.4309H18.4782V36.7787H16.3042V38.9526H20.6521V34.6048L22.6448 32.2135H27.355L29.3477 34.6048V36.7787H27.1738V38.9526H35.8694V26.996C35.8694 25.1951 37.3293 23.7352 39.1302 23.7352C39.1765 23.7352 39.2224 23.7368 39.2683 23.7387C39.1783 23.3902 39.1302 23.0249 39.1302 22.6482C39.1304 20.3192 40.9618 18.4181 43.263 18.3059V18.3059ZM31.5217 36.7786V32.2134H31.7029L33.6956 34.6047V36.7786H31.5217Z" fill="#D80027"/>
</g>
<defs>
<clipPath id="clip0_402_158">
<rect width="50" height="50" fill="white" transform="translate(0 0.909058)"/>
</clipPath>
</defs>
</svg>
