<svg width="50" height="51" viewBox="0 0 50 51" fill="none" xmlns="http://www.w3.org/2000/svg">
<g clip-path="url(#clip0_402_158)">
<path d="M25 50.9091C38.8071 50.9091 50 39.7162 50 25.9091C50 12.1019 38.8071 0.909058 25 0.909058C11.1929 0.909058 0 12.1019 0 25.9091C0 39.7162 11.1929 50.9091 25 50.9091Z" fill="#F0F0F0"/>
<path d="M50 25.909C50 15.9975 44.2319 7.43346 35.8695 3.38971V48.4283C44.2319 44.3846 50 35.8206 50 25.909V25.909Z" fill="#D80027"/>
<path d="M0 25.909C0 35.8206 5.76807 44.3846 14.1305 48.4284V3.38971C5.76807 7.43346 0 15.9975 0 25.909Z" fill="#6DA544"/>
<path d="M18.4783 25.909C18.4783 29.5109 21.3982 32.4308 25 32.4308C28.6019 32.4308 31.5218 29.5109 31.5218 25.909V23.7351H18.4783V25.909Z" fill="#6DA544"/>
<path d="M33.6956 21.5612H27.1738C27.1738 20.3606 26.2005 19.3873 24.9999 19.3873C23.7993 19.3873 22.826 20.3606 22.826 21.5612H16.3042C16.3042 22.7619 17.35 23.7351 18.5505 23.7351H18.4781C18.4781 24.9358 19.4514 25.909 20.6521 25.909C20.6521 27.1097 21.6253 28.083 22.826 28.083H27.1738C28.3745 28.083 29.3478 27.1097 29.3478 25.909C30.5484 25.909 31.5217 24.9358 31.5217 23.7351H31.4492C32.6499 23.7351 33.6956 22.7619 33.6956 21.5612Z" fill="#FF9811"/>
</g>
<defs>
<clipPath id="clip0_402_158">
<rect width="50" height="50" fill="white" transform="translate(0 0.909058)"/>
</clipPath>
</defs>
</svg>
