<svg width="50" height="51" viewBox="0 0 50 51" fill="none" xmlns="http://www.w3.org/2000/svg">
<g clip-path="url(#clip0_402_158)">
<path d="M33.6956 2.46404C30.9873 1.45916 28.058 0.909058 25 0.909058C21.942 0.909058 19.0127 1.45916 16.3044 2.46404L14.1305 25.9091L16.3044 49.3541C19.0127 50.3591 21.942 50.9091 25 50.9091C28.058 50.9091 30.9873 50.3591 33.6956 49.3541L35.8696 25.9091L33.6956 2.46404Z" fill="#FFDA44"/>
<path d="M49.9999 25.909C49.9999 15.16 43.2156 5.99634 33.6956 2.46411V49.3542C43.2156 45.8217 49.9999 36.6583 49.9999 25.909V25.909Z" fill="#D80027"/>
<path d="M0 25.909C0 36.6583 6.78437 45.8217 16.3044 49.3542V2.46411C6.78437 5.99634 0 15.16 0 25.909V25.909Z" fill="black"/>
</g>
<defs>
<clipPath id="clip0_402_158">
<rect width="50" height="50" fill="white" transform="translate(0 0.909058)"/>
</clipPath>
</defs>
</svg>
