<svg width="50" height="51" viewBox="0 0 50 51" fill="none" xmlns="http://www.w3.org/2000/svg">
<g clip-path="url(#clip0_402_158)">
<path d="M50 25.9091C50 39.7161 38.807 50.9091 25 50.9091C11.193 50.9091 0 39.7161 0 25.9091C0 25.9149 25 0.91189 25 0.909058C38.807 0.909058 50 12.102 50 25.9091Z" fill="#0052B4"/>
<path d="M25 0.909058C24.9987 0.909058 24.9972 0.909155 24.9958 0.909155L25 0.909058Z" fill="#F0F0F0"/>
<path d="M24.9331 25.9091H25C25 25.8864 25 25.8647 25 25.8422C24.9777 25.8645 24.9555 25.8868 24.9331 25.9091Z" fill="#F0F0F0"/>
<path d="M25 13.9526C25 9.55371 25 6.67119 25 0.90918H24.9958C11.1906 0.911426 0 12.1033 0 25.9091H13.0435V18.5642L20.3884 25.9091H24.9332C24.9556 25.8868 24.9778 25.8646 25.0001 25.8422C25.0001 24.1579 25.0001 22.6551 25.0001 21.2977L17.6551 13.9526H25Z" fill="#F0F0F0"/>
<path d="M12.648 4.16992C8.73791 6.39639 5.48733 9.64697 3.26086 13.557V25.9091H9.78264V10.6918V10.6917H25C25 8.63477 25 6.6752 25 4.16992H12.648Z" fill="#D80027"/>
<path d="M25 22.8348L16.1179 13.9527H13.0436C13.0436 13.9526 13.0436 13.9527 13.0436 13.9527L24.9999 25.9091H25C25 25.9091 25 23.7895 25 22.8348Z" fill="#D80027"/>
<path d="M15.0777 30.2569L16.4498 33.1258L19.5481 32.4097L18.1606 35.2713L20.6522 37.2471L17.55 37.9463L17.5586 41.1264L15.0777 39.1369L12.5968 41.1264L12.6055 37.9463L9.50317 37.2471L11.9949 35.2713L10.6072 32.4097L13.7057 33.1258L15.0777 30.2569Z" fill="#F0F0F0"/>
<path d="M37.4302 35.6917L38.1162 37.1261L39.6654 36.768L38.9716 38.1988L40.2175 39.1868L38.6663 39.5364L38.6706 41.1264L37.4302 40.1316L36.1897 41.1264L36.194 39.5364L34.6429 39.1868L35.8887 38.1988L35.195 36.768L36.7441 37.1261L37.4302 35.6917Z" fill="#F0F0F0"/>
<path d="M31.0482 20.4742L31.7341 21.9088L33.2833 21.5506L32.5896 22.9814L33.8354 23.9694L32.2843 24.319L32.2885 25.909L31.0482 24.9142L29.8077 25.909L29.8119 24.319L28.2609 23.9694L29.5067 22.9814L28.8129 21.5506L30.3621 21.9088L31.0482 20.4742Z" fill="#F0F0F0"/>
<path d="M37.4302 11.7786L38.1162 13.2131L39.6654 12.855L38.9717 14.2858L40.2174 15.2737L38.6663 15.6234L38.6706 17.2134L37.4302 16.2186L36.1897 17.2134L36.194 15.6234L34.6429 15.2737L35.8886 14.2858L35.195 12.855L36.7441 13.2131L37.4302 11.7786Z" fill="#F0F0F0"/>
<path d="M43.0047 18.3004L43.6907 19.7349L45.2399 19.3767L44.5461 20.8075L45.7919 21.7955L44.2407 22.1452L44.245 23.7351L43.0047 22.7404L41.7643 23.7351L41.7685 22.1452L40.2174 21.7955L41.4632 20.8075L40.7695 19.3767L42.3186 19.7349L43.0047 18.3004Z" fill="#F0F0F0"/>
<path d="M39.0186 25.9091L39.5582 27.5698H41.3045L39.8917 28.5963L40.4314 30.2569L39.0186 29.2305L37.6059 30.2569L38.1455 28.5963L36.7328 27.5698H38.479L39.0186 25.9091Z" fill="#F0F0F0"/>
</g>
<defs>
<clipPath id="clip0_402_158">
<rect width="50" height="50" fill="white" transform="translate(0 0.909058)"/>
</clipPath>
</defs>
</svg>
