<svg width="50" height="51" viewBox="0 0 50 51" fill="none" xmlns="http://www.w3.org/2000/svg">
<g clip-path="url(#clip0_402_158)">
<path d="M25 50.9091C38.8071 50.9091 50 39.7162 50 25.9091C50 12.1019 38.8071 0.909058 25 0.909058C11.1929 0.909058 0 12.1019 0 25.9091C0 39.7162 11.1929 50.9091 25 50.9091Z" fill="#F0F0F0"/>
<path d="M49.7884 22.6482H28.261H28.2609V1.12068C27.1935 0.981714 26.1052 0.909058 25 0.909058C23.8948 0.909058 22.8065 0.981714 21.7392 1.12068V22.648V22.6481H0.211621C0.0726563 23.7156 0 24.8037 0 25.9091C0 27.0144 0.0726563 28.1025 0.211621 29.1699H21.739H21.7391V50.6974C22.8065 50.8364 23.8948 50.9091 25 50.9091C26.1052 50.9091 27.1935 50.8365 28.2608 50.6974V29.1701V29.17H49.7884C49.9273 28.1025 50 27.0144 50 25.9091C50 24.8037 49.9273 23.7156 49.7884 22.6482V22.6482Z" fill="#D80027"/>
</g>
<defs>
<clipPath id="clip0_402_158">
<rect width="50" height="50" fill="white" transform="translate(0 0.909058)"/>
</clipPath>
</defs>
</svg>
