<svg width="50" height="51" viewBox="0 0 50 51" fill="none" xmlns="http://www.w3.org/2000/svg">
<g clip-path="url(#clip0_402_158)">
<path d="M50 25.9091C50 22.8511 49.4499 19.9217 48.445 17.2135L25 16.1265L1.55498 17.2134C0.550098 19.9217 0 22.8511 0 25.9091C0 28.9671 0.550098 31.8965 1.55498 34.6047L25 35.6917L48.445 34.6048C49.4499 31.8965 50 28.9671 50 25.9091Z" fill="#F0F0F0"/>
<path d="M25 50.9091C35.7491 50.9091 44.9126 44.1247 48.445 34.6047H1.55493C5.08726 44.1247 14.2508 50.9091 25 50.9091Z" fill="#0052B4"/>
<path d="M1.55493 17.2135H48.4451C44.9126 7.69343 35.7491 0.909058 25 0.909058C14.2508 0.909058 5.08726 7.69343 1.55493 17.2135V17.2135Z" fill="#D80027"/>
<path d="M31.5218 18.3004H27.174L27.8987 12.8656L30.7971 10.6917L33.6956 12.8656V17.2134L31.5218 18.3004Z" fill="#338AF3"/>
<path d="M18.4783 18.3004H22.8261L22.1014 12.8656L19.2029 10.6917L16.3044 12.8656V17.2134L18.4783 18.3004Z" fill="#338AF3"/>
<path d="M27.8986 18.3004H22.1013V12.8656L25 10.6917L27.8986 12.8656V18.3004Z" fill="#0052B4"/>
<path d="M16.3044 17.2136V29.17C16.3044 32.017 17.6796 34.5488 19.8007 36.136L21.3225 35.7553L23.2428 37.6871C23.8107 37.8041 24.3983 37.8657 25.0001 37.8657C25.5988 37.8657 26.1834 37.8049 26.7483 37.6891L28.9404 35.8639L30.1994 36.1325C32.3196 34.5454 33.6958 32.0162 33.6958 29.17V17.2136H16.3044Z" fill="#F0F0F0"/>
<path d="M16.3044 17.2134H19.7827V20.6917H16.3044V17.2134Z" fill="#D80027"/>
<path d="M23.2609 17.2134H26.7391V20.6917H23.2609V17.2134Z" fill="#D80027"/>
<path d="M30.2174 17.2134H33.6956V20.6917H30.2174V17.2134Z" fill="#D80027"/>
<path d="M19.7827 20.6917H23.2609V24.1699H19.7827V20.6917Z" fill="#D80027"/>
<path d="M26.7393 20.6917H30.2175V24.1699H26.7393V20.6917Z" fill="#D80027"/>
<path d="M16.3044 24.1688H19.7827V27.647H16.3044V24.1688Z" fill="#D80027"/>
<path d="M19.7827 27.6472H23.2609V31.1254H19.7827V27.6472Z" fill="#D80027"/>
<path d="M23.2609 24.1688H26.7391V27.647H23.2609V24.1688Z" fill="#D80027"/>
<path d="M30.2174 24.1688H33.6956V27.647H30.2174V24.1688Z" fill="#D80027"/>
<path d="M26.7393 27.6472H30.2175V31.1254H26.7393V27.6472Z" fill="#D80027"/>
<path d="M23.2609 31.1254H26.7391V34.6036H23.2609V31.1254Z" fill="#D80027"/>
<path d="M19.7826 31.1257H16.5288C16.8272 32.4186 17.414 33.6017 18.2185 34.6039H19.7826V31.1257Z" fill="#D80027"/>
<path d="M30.2174 34.604H31.7815C32.5862 33.6018 33.1727 32.4186 33.4711 31.1257H30.2174V34.604Z" fill="#D80027"/>
<path d="M19.7827 34.6039V36.1216C20.7943 36.8828 21.9766 37.4286 23.2609 37.6906V34.6039H19.7827Z" fill="#D80027"/>
<path d="M26.7393 34.6039V37.6906C28.0237 37.4288 29.2059 36.8828 30.2175 36.1216V34.6039H26.7393Z" fill="#D80027"/>
</g>
<defs>
<clipPath id="clip0_402_158">
<rect width="50" height="50" fill="white" transform="translate(0 0.909058)"/>
</clipPath>
</defs>
</svg>
