<svg width="50" height="51" viewBox="0 0 50 51" fill="none" xmlns="http://www.w3.org/2000/svg">
<g clip-path="url(#clip0_402_158)">
<path d="M25 50.9091C38.8071 50.9091 50 39.7162 50 25.9091C50 12.1019 38.8071 0.909058 25 0.909058C11.1929 0.909058 0 12.1019 0 25.9091C0 39.7162 11.1929 50.9091 25 50.9091Z" fill="#F0F0F0"/>
<path d="M50 25.9091C50 12.102 38.807 0.909058 25 0.909058C20.1094 0.909058 15.5474 2.31482 11.6941 4.74216L17.1739 7.07039L9.78259 10.2108L17.1739 13.3511L9.78259 16.4914L17.1739 19.6315L9.78259 22.7713L17.1739 25.9108L9.78259 29.0511L17.1739 32.1911L9.78259 35.3308L17.1739 38.4709L9.78259 41.6111L17.1739 44.7509L11.6966 47.0778C15.5494 49.504 20.1103 50.9091 25 50.9091C38.807 50.9091 50 39.7161 50 25.9091Z" fill="#751A46"/>
</g>
<defs>
<clipPath id="clip0_402_158">
<rect width="50" height="50" fill="white" transform="translate(0 0.909058)"/>
</clipPath>
</defs>
</svg>
