<svg width="50" height="51" viewBox="0 0 50 51" fill="none" xmlns="http://www.w3.org/2000/svg">
<g clip-path="url(#clip0_402_158)">
<path d="M1.55493 34.6047C5.08726 44.1246 14.2508 50.9091 25 50.9091C35.7491 50.9091 44.9126 44.1246 48.445 34.6047L25 32.4308L1.55493 34.6047Z" fill="#FFDA44"/>
<path d="M25 0.909058C14.2508 0.909058 5.08726 7.69343 1.55493 17.2135L25 19.3873L48.445 17.2134C44.9126 7.69343 35.7491 0.909058 25 0.909058Z" fill="black"/>
<path d="M1.55498 17.2134C0.550098 19.9217 0 22.851 0 25.909C0 28.9671 0.550098 31.8964 1.55498 34.6047H48.4451C49.45 31.8964 50 28.9671 50 25.909C50 22.851 49.45 19.9217 48.445 17.2134H1.55498Z" fill="#D80027"/>
</g>
<defs>
<clipPath id="clip0_402_158">
<rect width="50" height="50" fill="white" transform="translate(0 0.909058)"/>
</clipPath>
</defs>
</svg>
