<svg width="50" height="51" viewBox="0 0 50 51" fill="none" xmlns="http://www.w3.org/2000/svg">
<g clip-path="url(#clip0_402_158)">
<path d="M25 50.9091C38.8071 50.9091 50 39.7162 50 25.9091C50 12.1019 38.8071 0.909058 25 0.909058C11.1929 0.909058 0 12.1019 0 25.9091C0 39.7162 11.1929 50.9091 25 50.9091Z" fill="#F0F0F0"/>
<path d="M23.9131 25.909H50C50 23.6526 49.6992 21.4667 49.1388 19.3873H23.9131V25.909Z" fill="#D80027"/>
<path d="M23.9131 12.8656H46.3307C44.8003 10.3683 42.8436 8.161 40.5621 6.34381H23.9131V12.8656Z" fill="#D80027"/>
<path d="M25 50.9091C30.8837 50.9091 36.2916 48.8755 40.5621 45.4743H9.43787C13.7084 48.8755 19.1163 50.9091 25 50.9091Z" fill="#D80027"/>
<path d="M3.66931 38.9525H46.3306C47.5593 36.9477 48.5121 34.7563 49.1387 32.4307H0.861206C1.48787 34.7563 2.4407 36.9477 3.66931 38.9525V38.9525Z" fill="#D80027"/>
<path d="M11.5805 4.81316H13.8587L11.7396 6.35271L12.549 8.84382L10.43 7.30427L8.31094 8.84382L9.01016 6.69177C7.14434 8.24597 5.50898 10.0669 4.16133 12.0958H4.89131L3.54238 13.0758C3.33223 13.4263 3.13066 13.7825 2.9375 14.1439L3.58164 16.1264L2.37988 15.2533C2.08115 15.8862 1.80791 16.5334 1.5623 17.194L2.27197 19.3784H4.89131L2.77217 20.9179L3.58164 23.4091L1.4626 21.8695L0.193262 22.7918C0.0662109 23.8131 0 24.8533 0 25.9091H25C25 12.102 25 10.4743 25 0.909058C20.0613 0.909058 15.4575 2.34167 11.5805 4.81316V4.81316ZM12.549 23.4091L10.43 21.8695L8.31094 23.4091L9.12041 20.9179L7.00127 19.3784H9.62061L10.43 16.8873L11.2394 19.3784H13.8587L11.7396 20.9179L12.549 23.4091ZM11.7396 13.6353L12.549 16.1264L10.43 14.5869L8.31094 16.1264L9.12041 13.6353L7.00127 12.0958H9.62061L10.43 9.60466L11.2394 12.0958H13.8587L11.7396 13.6353ZM21.5164 23.4091L19.3974 21.8695L17.2783 23.4091L18.0878 20.9179L15.9687 19.3784H18.588L19.3974 16.8873L20.2067 19.3784H22.8261L20.7069 20.9179L21.5164 23.4091ZM20.7069 13.6353L21.5164 16.1264L19.3974 14.5869L17.2783 16.1264L18.0878 13.6353L15.9687 12.0958H18.588L19.3974 9.60466L20.2067 12.0958H22.8261L20.7069 13.6353ZM20.7069 6.35271L21.5164 8.84382L19.3974 7.30427L17.2783 8.84382L18.0878 6.35271L15.9687 4.81316H18.588L19.3974 2.32205L20.2067 4.81316H22.8261L20.7069 6.35271Z" fill="#0052B4"/>
</g>
<defs>
<clipPath id="clip0_402_158">
<rect width="50" height="50" fill="white" transform="translate(0 0.909058)"/>
</clipPath>
</defs>
</svg>
