<svg width="50" height="51" viewBox="0 0 50 51" fill="none" xmlns="http://www.w3.org/2000/svg">
<g clip-path="url(#clip0_403_103)">
<path d="M25 50.9091C38.8071 50.9091 50 39.7162 50 25.9091C50 12.1019 38.8071 0.909058 25 0.909058C11.1929 0.909058 0 12.1019 0 25.9091C0 39.7162 11.1929 50.9091 25 50.9091Z" fill="#6DA544"/>
<path d="M25.0001 10.6917L45.6522 25.909L25.0001 41.1264L4.3479 25.909L25.0001 10.6917Z" fill="#FFDA44"/>
<path d="M25 34.6047C29.8025 34.6047 33.6957 30.7115 33.6957 25.909C33.6957 21.1066 29.8025 17.2134 25 17.2134C20.1976 17.2134 16.3044 21.1066 16.3044 25.909C16.3044 30.7115 20.1976 34.6047 25 34.6047Z" fill="#F0F0F0"/>
<path d="M20.6521 25.3656C19.14 25.3656 17.6808 25.5956 16.3071 26.0223C16.368 30.7723 20.2355 34.6048 25 34.6048C27.9461 34.6048 30.548 33.1383 32.121 30.8969C29.4299 27.5281 25.2892 25.3656 20.6521 25.3656V25.3656Z" fill="#0052B4"/>
<path d="M33.5345 27.5751C33.6392 27.0356 33.6957 26.4791 33.6957 25.909C33.6957 21.1065 29.8025 17.2134 25.0001 17.2134C21.4167 17.2134 18.3405 19.3815 17.0093 22.477C18.186 22.2332 19.4044 22.1047 20.6523 22.1047C25.7028 22.1047 30.2718 24.2041 33.5345 27.5751V27.5751Z" fill="#0052B4"/>
</g>
<defs>
<clipPath id="clip0_403_103">
<rect width="50" height="50" fill="white" transform="translate(0 0.909058)"/>
</clipPath>
</defs>
</svg>