<svg width="50" height="51" viewBox="0 0 50 51" fill="none" xmlns="http://www.w3.org/2000/svg">
<g clip-path="url(#clip0_402_158)">
<path d="M25 50.9091C38.8071 50.9091 50 39.7162 50 25.9091C50 12.1019 38.8071 0.909058 25 0.909058C11.1929 0.909058 0 12.1019 0 25.9091C0 39.7162 11.1929 50.9091 25 50.9091Z" fill="#F0F0F0"/>
<path d="M37.1285 4.045C33.5363 2.04812 29.4014 0.909058 25 0.909058C11.1939 0.909058 0.00175781 12.1003 0 25.9061L17.3913 17.2135L37.1285 4.045Z" fill="#0052B4"/>
<path d="M0 25.912C0.00175781 39.7178 11.1939 50.9091 25 50.9091C29.4014 50.9091 33.5363 49.7702 37.1285 47.7731L17.3913 34.6047L0 25.912Z" fill="#0052B4"/>
<path d="M39.2119 5.34092C38.5404 4.87617 37.8446 4.44395 37.1276 4.04541L0 25.9062V25.9091C0 25.9091 0 25.9111 0 25.912L37.1277 47.7727C37.8447 47.374 38.5404 46.9419 39.212 46.4771L4.27949 25.9091L39.2119 5.34092Z" fill="#D80027"/>
<path d="M43.4782 24.9768H40.5003C41.2746 24.0471 41.2268 22.664 40.3545 21.7918C41.2785 20.8679 41.2785 19.3697 40.3545 18.4456L40.2988 18.5015C41.2227 17.5775 41.2785 16.0235 40.3545 15.0996L26.9701 28.484C27.8941 29.4081 29.366 29.3971 30.2899 28.473L30.5475 28.2376L36.9565 27.655V30.4114H39.1304V27.4573L42.3913 27.1609L43.4782 24.9768Z" fill="#A2001D"/>
<path d="M27.1747 31.3438L25 30.2569L27.1747 29.1699H41.3051V31.3438H27.1747Z" fill="#FFDA44"/>
</g>
<defs>
<clipPath id="clip0_402_158">
<rect width="50" height="50" fill="white" transform="translate(0 0.909058)"/>
</clipPath>
</defs>
</svg>
