<svg width="50" height="51" viewBox="0 0 50 51" fill="none" xmlns="http://www.w3.org/2000/svg">
<g clip-path="url(#clip0_402_158)">
<path d="M25 0.909058C38.807 0.909058 50 12.102 50 25.9091C50 39.7161 38.807 50.9091 25 50.9091C25 49.8221 21.7391 25.9091 21.7391 25.9091L25 0.909058Z" fill="#F0F0F0"/>
<path d="M25 50.9091C11.193 50.9091 0 39.7161 0 25.9091C0 12.102 11.193 0.909058 25 0.909058" fill="#496E2D"/>
<path d="M30.3713 21.1138L28.3201 23.9404L24.9982 22.8631L27.0527 25.6873L25.0017 28.514L28.3224 27.4328L30.3769 30.2569L30.3747 26.7646L33.6955 25.6834L30.3737 24.6063L30.3713 21.1138Z" fill="#D80027"/>
<path d="M27.0739 32.9743C23.1719 32.9743 20.0086 29.811 20.0086 25.9091C20.0086 22.0071 23.1719 18.8438 27.0739 18.8438C28.2905 18.8438 29.4353 19.1515 30.4347 19.6931C28.8667 18.1598 26.7226 17.2134 24.3565 17.2134C19.554 17.2134 15.6609 21.1065 15.6609 25.909C15.6609 30.7114 19.5541 34.6046 24.3565 34.6046C26.7227 34.6046 28.8668 33.6582 30.4347 32.1249C29.4353 32.6667 28.2905 32.9743 27.0739 32.9743Z" fill="#D80027"/>
</g>
<defs>
<clipPath id="clip0_402_158">
<rect width="50" height="50" fill="white" transform="translate(0 0.909058)"/>
</clipPath>
</defs>
</svg>
