<svg width="50" height="51" viewBox="0 0 50 51" fill="none" xmlns="http://www.w3.org/2000/svg">
<g clip-path="url(#clip0_402_158)">
<path d="M25 50.9091C38.8071 50.9091 50 39.7162 50 25.9091C50 12.1019 38.8071 0.909058 25 0.909058C11.1929 0.909058 0 12.1019 0 25.9091C0 39.7162 11.1929 50.9091 25 50.9091Z" fill="#D80027"/>
<path d="M39.7743 21.4256H28.4877L25 10.6917L21.5124 21.4256H10.2258L19.3568 28.0596L15.869 38.7939L25 32.1598L34.1311 38.794L30.6433 28.0597L39.7743 21.4256ZM21.9124 27.2292L23.0917 23.5995H26.9083L28.0877 27.2292V27.2293L25 29.4726L21.9125 27.2293L21.9124 27.2292ZM26.202 21.4256H23.7982L25 17.7264L26.202 21.4256ZM29.9369 25.8858L29.194 23.5996H33.0835L29.9369 25.8858ZM20.806 23.5996L20.0631 25.8858L16.9164 23.5996H20.806ZM20.0041 33.1025L21.206 29.4034L23.1508 30.8163L20.0041 33.1025ZM26.8493 30.8164L28.7941 29.4035L29.996 33.1026L26.8493 30.8164Z" fill="#FFDA44"/>
</g>
<defs>
<clipPath id="clip0_402_158">
<rect width="50" height="50" fill="white" transform="translate(0 0.909058)"/>
</clipPath>
</defs>
</svg>
