<svg width="50" height="51" viewBox="0 0 50 51" fill="none" xmlns="http://www.w3.org/2000/svg">
<g clip-path="url(#clip0_402_158)">
<path d="M25 50.9091C38.8071 50.9091 50 39.7162 50 25.9091C50 12.1019 38.8071 0.909058 25 0.909058C11.1929 0.909058 0 12.1019 0 25.9091C0 39.7162 11.1929 50.9091 25 50.9091Z" fill="#F0F0F0"/>
<path d="M19.5654 22.6482H49.7884C48.1905 10.3819 37.7019 0.909058 25.0001 0.909058C23.1334 0.909058 21.3153 1.11541 19.5653 1.5033V22.6482H19.5654Z" fill="#D80027"/>
<path d="M13.0435 22.6481V3.94879C6.17895 7.6943 1.2647 14.5645 0.21167 22.6482H13.0435V22.6481Z" fill="#D80027"/>
<path d="M13.0434 29.1699H0.21167C1.2647 37.2536 6.17895 44.1238 13.0435 47.8692L13.0434 29.1699Z" fill="#D80027"/>
<path d="M19.5653 29.17V50.3148C21.3153 50.7027 23.1334 50.9091 25.0001 50.9091C37.7019 50.9091 48.1905 41.4362 49.7884 29.1699H19.5653V29.17Z" fill="#D80027"/>
</g>
<defs>
<clipPath id="clip0_402_158">
<rect width="50" height="50" fill="white" transform="translate(0 0.909058)"/>
</clipPath>
</defs>
</svg>
