<svg width="50" height="51" viewBox="0 0 50 51" fill="none" xmlns="http://www.w3.org/2000/svg">
<g clip-path="url(#clip0_402_158)">
<path d="M25 50.9091C38.8071 50.9091 50 39.7162 50 25.9091C50 12.1019 38.8071 0.909058 25 0.909058C11.1929 0.909058 0 12.1019 0 25.9091C0 39.7162 11.1929 50.9091 25 50.9091Z" fill="#F0F0F0"/>
<path d="M25 19.3873H49.1388C48.5119 17.0617 47.5592 14.8702 46.3307 12.8655H25V19.3873Z" fill="#338AF3"/>
<path d="M9.43777 45.4743H40.5621C42.8436 43.6571 44.8003 41.4499 46.3305 38.9525H3.66931C5.19968 41.4498 7.15632 43.6571 9.43777 45.4743V45.4743Z" fill="#338AF3"/>
<path d="M25 0.909058V6.34382H40.5622C36.2917 2.94265 30.8837 0.909058 25 0.909058V0.909058Z" fill="#338AF3"/>
<path d="M25 19.3873H49.1388C48.5119 17.0617 47.5592 14.8702 46.3307 12.8655H25V19.3873Z" fill="#338AF3"/>
<path d="M0 25.9091C0 28.1656 0.300781 30.3513 0.86123 32.4308H49.1389C49.6992 30.3513 50 28.1656 50 25.9091H0Z" fill="#338AF3"/>
<path d="M21.7391 15.54L18.6858 16.9762L20.3117 19.9333L16.9963 19.2991L16.5761 22.6482L14.267 20.1849L11.9576 22.6482L11.5376 19.2991L8.22214 19.9331L9.84792 16.9761L6.7948 15.54L9.84802 14.104L8.22214 11.1469L11.5375 11.7811L11.9577 8.43201L14.267 10.8953L16.5762 8.43201L16.9963 11.7811L20.3118 11.1469L18.6859 14.1041L21.7391 15.54Z" fill="#FFDA44"/>
</g>
<defs>
<clipPath id="clip0_402_158">
<rect width="50" height="50" fill="white" transform="translate(0 0.909058)"/>
</clipPath>
</defs>
</svg>
