<svg width="50" height="51" viewBox="0 0 50 51" fill="none" xmlns="http://www.w3.org/2000/svg">
<g clip-path="url(#clip0_402_158)">
<path d="M25 50.9091C38.8071 50.9091 50 39.7162 50 25.9091C50 12.1019 38.8071 0.909058 25 0.909058C11.1929 0.909058 0 12.1019 0 25.9091C0 39.7162 11.1929 50.9091 25 50.9091Z" fill="#6DA544"/>
<path d="M14.1305 30.8004C14.1305 32.6012 15.5905 34.0612 17.3913 34.0612H27.1739C27.1739 35.562 28.3906 36.7786 29.8913 36.7786H33.1522C34.653 36.7786 35.8696 35.562 35.8696 34.0612V30.8004H14.1305Z" fill="#F0F0F0"/>
<path d="M36.1413 15.0396V22.6482C36.1413 23.847 35.1661 24.8222 33.9674 24.8222V28.083C36.9642 28.083 39.4022 25.6449 39.4022 22.6482V15.0396H36.1413Z" fill="#F0F0F0"/>
<path d="M12.7718 22.6482C12.7718 23.847 11.7966 24.8222 10.5979 24.8222V28.083C13.5947 28.083 16.0327 25.6449 16.0327 22.6482V15.0396H12.7718V22.6482Z" fill="#F0F0F0"/>
<path d="M31.25 15.0396H34.5108V22.6482H31.25V15.0396Z" fill="#F0F0F0"/>
<path d="M26.3587 19.3873C26.3587 19.687 26.1148 19.9307 25.8152 19.9307C25.5156 19.9307 25.2718 19.6869 25.2718 19.3873V15.0394H22.0109V19.3873C22.0109 19.687 21.7671 19.9307 21.4675 19.9307C21.1679 19.9307 20.924 19.6869 20.924 19.3873V15.0394H17.6631V19.3873C17.6631 21.485 19.3697 23.1917 21.4675 23.1917C22.2754 23.1917 23.0246 22.9378 23.6414 22.5065C24.2581 22.9377 25.0074 23.1917 25.8153 23.1917C25.978 23.1917 26.138 23.1802 26.2953 23.1602C26.0643 24.1123 25.2068 24.822 24.1849 24.822V28.0829C27.1816 28.0829 29.6196 25.6448 29.6196 22.6481V19.3873V15.0394H26.3588V19.3873H26.3587Z" fill="#F0F0F0"/>
<path d="M17.6631 24.8221H22.5544V28.083H17.6631V24.8221Z" fill="#F0F0F0"/>
</g>
<defs>
<clipPath id="clip0_402_158">
<rect width="50" height="50" fill="white" transform="translate(0 0.909058)"/>
</clipPath>
</defs>
</svg>
