<svg width="50" height="51" viewBox="0 0 50 51" fill="none" xmlns="http://www.w3.org/2000/svg">
<g clip-path="url(#clip0_402_158)">
<path d="M25 50.9091C38.8071 50.9091 50 39.7162 50 25.9091C50 12.1019 38.8071 0.909058 25 0.909058C11.1929 0.909058 0 12.1019 0 25.9091C0 39.7162 11.1929 50.9091 25 50.9091Z" fill="#F0F0F0"/>
<path d="M49.9999 25.9091C49.9999 15.1599 43.2156 5.99637 33.6956 2.46405V49.3542C43.2156 45.8218 49.9999 36.6582 49.9999 25.9091V25.9091Z" fill="#D80027"/>
<path d="M0 25.9091C0 36.6582 6.78447 45.8218 16.3044 49.3541V2.46405C6.78447 5.99637 0 15.1599 0 25.9091Z" fill="#0052B4"/>
</g>
<defs>
<clipPath id="clip0_402_158">
<rect width="50" height="50" fill="white" transform="translate(0 0.909058)"/>
</clipPath>
</defs>
</svg>
