<svg width="50" height="51" viewBox="0 0 50 51" fill="none" xmlns="http://www.w3.org/2000/svg">
<g clip-path="url(#clip0_402_158)">
<path d="M25 50.9091C38.8071 50.9091 50 39.7162 50 25.9091C50 12.1019 38.8071 0.909058 25 0.909058C11.1929 0.909058 0 12.1019 0 25.9091C0 39.7162 11.1929 50.9091 25 50.9091Z" fill="#D80027"/>
<path d="M25 37.8656C31.6034 37.8656 36.9565 32.5125 36.9565 25.9091C36.9565 19.3056 31.6034 13.9525 25 13.9525C18.3966 13.9525 13.0435 19.3056 13.0435 25.9091C13.0435 32.5125 18.3966 37.8656 25 37.8656Z" fill="#F0F0F0"/>
<path d="M26.473 21.3374L28.5242 24.1641L31.8462 23.0869L29.7918 25.9111L31.8427 28.7377L28.5218 27.6564L26.4675 30.4807L26.4696 26.9884L23.1488 25.9071L26.4709 24.83L26.473 21.3374Z" fill="#D80027"/>
<path d="M27.7174 32.9743C23.8155 32.9743 20.6522 29.811 20.6522 25.9091C20.6522 22.0071 23.8155 18.8438 27.7174 18.8438C28.934 18.8438 30.0789 19.1515 31.0783 19.6931C29.5104 18.1598 27.3664 17.2134 25 17.2134C20.1977 17.2134 16.3044 21.1065 16.3044 25.909C16.3044 30.7114 20.1977 34.6046 25 34.6046C27.3664 34.6046 29.5105 33.6582 31.0783 32.1249C30.0789 32.6667 28.934 32.9743 27.7174 32.9743Z" fill="#D80027"/>
</g>
<defs>
<clipPath id="clip0_402_158">
<rect width="50" height="50" fill="white" transform="translate(0 0.909058)"/>
</clipPath>
</defs>
</svg>
