<svg width="50" height="51" viewBox="0 0 50 51" fill="none" xmlns="http://www.w3.org/2000/svg">
<g clip-path="url(#clip0_402_158)">
<path d="M0 25.9091C0 28.9671 0.550098 31.8964 1.55498 34.6047L25 36.7786L48.445 34.6047C49.4499 31.8964 50 28.9671 50 25.9091C50 22.8511 49.4499 19.9218 48.445 17.2135L25 15.0396L1.55498 17.2135C0.550098 19.9218 0 22.8511 0 25.9091H0Z" fill="#FFDA44"/>
<path d="M48.445 17.2135C44.9126 7.69353 35.7491 0.909058 25 0.909058C14.2508 0.909058 5.08726 7.69353 1.55493 17.2135H48.445Z" fill="#D80027"/>
<path d="M1.55493 34.6047C5.08726 44.1246 14.2508 50.9091 25 50.9091C35.7491 50.9091 44.9126 44.1246 48.445 34.6047H1.55493Z" fill="#D80027"/>
</g>
<defs>
<clipPath id="clip0_402_158">
<rect width="50" height="50" fill="white" transform="translate(0 0.909058)"/>
</clipPath>
</defs>
</svg>
